<?xml version="1.0" standalone="no"?>
<!DOCTYPE svg PUBLIC "-//W3C//DTD SVG 20010904//EN"
 "http://www.w3.org/TR/2001/REC-SVG-20010904/DTD/svg10.dtd">
<svg version="1.0" xmlns="http://www.w3.org/2000/svg"
 width="475.000000pt" height="475.000000pt" viewBox="0 0 475.000000 475.000000"
 preserveAspectRatio="xMidYMid meet">

<g transform="translate(0.000000,475.000000) scale(0.100000,-0.100000)"
fill="#000000" stroke="none">
<path d="M3863 4134 c-205 -187 -318 -366 -423 -672 -82 -238 -101 -329 -107
-535 l-6 -168 -28 49 c-43 76 -99 113 -113 76 -21 -54 7 -291 48 -417 12 -37
20 -67 18 -67 -3 0 -50 13 -106 29 -94 27 -167 45 -355 89 -72 17 -74 18 -102
67 -16 28 -32 57 -36 65 -3 8 -29 49 -56 90 -28 41 -62 93 -76 115 -35 53
-179 196 -276 274 -185 149 -433 225 -653 200 -230 -25 -425 -122 -573 -285
-50 -56 -111 -163 -157 -275 -9 -24 -16 -27 -89 -33 -142 -12 -354 -58 -451
-98 -80 -33 -114 -67 -92 -93 30 -36 286 -81 490 -86 85 -2 96 -9 103 -62 8
-59 61 -224 95 -295 132 -276 359 -517 595 -632 176 -85 395 -144 557 -149 36
-1 69 -6 74 -11 5 -5 5 -30 1 -56 -5 -37 -15 -56 -43 -82 -39 -36 -290 -234
-354 -278 l-37 -26 -58 44 c-128 98 -322 198 -383 198 -43 0 -19 -41 50 -87
125 -83 176 -123 194 -154 l18 -31 -43 6 c-65 9 -198 14 -246 8 -45 -4 -57
-24 -25 -40 33 -18 228 -61 322 -72 103 -13 132 -25 154 -68 8 -15 26 -38 40
-51 39 -37 54 -16 59 83 l3 80 45 38 c24 22 83 69 130 106 48 37 125 101 172
142 77 67 89 82 123 157 20 46 42 83 48 83 63 2 225 24 297 41 l90 21 132 -42
c258 -81 305 -105 459 -230 34 -29 91 -75 126 -102 34 -27 62 -51 62 -53 0 -2
-18 -59 -39 -127 -46 -146 -53 -176 -46 -188 11 -17 35 2 66 53 41 67 88 127
100 127 5 0 9 -17 9 -37 0 -21 5 -67 10 -103 31 -196 71 -145 89 115 6 72 19
173 31 225 46 199 49 221 34 227 -14 5 -74 -53 -131 -124 -14 -18 -29 -33 -34
-33 -34 0 -305 162 -380 227 -9 7 -72 37 -139 67 -68 29 -125 57 -127 62 -2 5
40 31 92 57 l95 49 138 4 c209 5 336 31 457 92 102 51 130 86 78 98 -16 3 -39
9 -53 14 l-25 8 30 11 c97 38 186 92 240 144 59 57 59 57 40 77 -17 16 -39 21
-135 25 -63 4 -153 2 -200 -4 -47 -5 -87 -7 -89 -5 -2 2 10 32 27 65 34 66 39
98 20 117 -14 14 -17 12 57 42 213 85 458 272 593 455 61 83 67 115 21 115
-41 0 -172 -45 -236 -81 -29 -16 -53 -25 -53 -21 0 4 16 35 37 68 224 364 346
643 422 964 50 210 61 377 29 418 -13 16 -72 -17 -178 -101 -107 -84 -191
-167 -281 -279 -97 -118 -104 -124 -96 -71 32 196 35 469 7 497 -13 14 -24 7
-97 -60z m-219 -531 c59 -151 99 -237 123 -265 13 -15 19 -14 71 7 31 12 120
53 196 90 77 37 160 75 185 85 25 10 82 34 125 54 44 20 80 35 82 33 6 -5 -31
-118 -75 -229 -41 -102 -45 -108 -79 -119 -43 -13 -198 -78 -292 -121 -36 -16
-112 -50 -170 -74 -58 -25 -113 -50 -123 -55 -11 -6 -20 -9 -21 -7 -36 49
-206 429 -206 458 0 6 21 63 46 128 43 110 72 168 79 160 2 -1 28 -67 59 -145z
m-1799 -308 c94 -19 215 -65 281 -107 76 -48 235 -181 293 -244 110 -120 270
-386 264 -436 l-4 -26 -93 5 c-212 13 -382 -53 -440 -169 -31 -63 -33 -105 -5
-189 23 -71 45 -111 101 -182 l38 -49 -19 -27 c-37 -51 -159 -159 -268 -236
l-108 -76 -8 62 c-12 97 -62 170 -93 137 -16 -18 -54 -124 -54 -153 l0 -24
-37 25 c-74 50 -221 117 -260 118 -36 1 -38 -1 -41 -31 -2 -18 8 -59 21 -93
14 -33 22 -60 18 -60 -16 1 -57 32 -146 110 -94 83 -220 233 -285 338 -76 125
-166 380 -158 449 2 22 12 30 50 44 67 24 204 106 228 137 31 39 22 63 -34 91
-33 17 -72 26 -123 29 l-75 5 7 35 c8 41 55 138 95 197 81 117 227 229 371
282 165 62 310 73 484 38z m-1415 -670 c0 -6 -57 -35 -70 -35 -23 0 -8 20 23
29 39 11 47 12 47 6z m2360 -129 c166 -29 407 -95 527 -145 127 -52 299 -155
309 -184 5 -17 -14 -68 -43 -114 -14 -21 -15 -20 -102 49 -115 92 -234 168
-351 225 -144 69 -257 108 -407 139 -15 3 -23 12 -23 25 0 21 -3 21 90 5z
m-150 -36 c165 -22 409 -103 539 -179 156 -93 381 -258 381 -282 0 -3 -24 -2
-52 3 -29 6 -102 8 -163 6 -169 -7 -255 -53 -255 -137 0 -118 159 -229 380
-265 l75 -12 -65 -13 c-361 -70 -868 52 -1112 267 -141 123 -228 269 -228 381
0 93 86 179 211 212 108 28 183 32 289 19z m1361 -477 c32 -32 -182 -172 -336
-219 -89 -27 -88 -34 6 -34 97 0 125 -11 94 -35 -11 -8 -45 -27 -75 -42 -174
-86 -502 15 -574 176 -18 39 -18 41 0 72 45 77 115 94 349 86 88 -3 194 -2
235 3 91 10 288 6 301 -7z m-1649 -155 c62 -60 249 -159 383 -201 87 -28 224
-61 295 -72 l44 -8 -84 -43 c-47 -23 -132 -59 -190 -78 -311 -105 -593 -122
-936 -57 -108 21 -393 125 -380 139 3 2 -5 19 -18 36 -37 50 -71 166 -48 166
41 0 185 -68 279 -132 23 -15 44 -28 47 -28 3 0 6 15 6 33 0 41 24 125 43 152
14 18 16 16 38 -26 16 -31 23 -64 25 -109 1 -57 4 -65 20 -62 51 10 266 174
359 274 65 69 63 69 117 16z"/>
<path d="M1332 3073 c-40 -19 -72 -58 -71 -87 0 -21 0 -21 12 -1 17 29 70 81
87 87 8 3 13 8 10 11 -3 3 -20 -1 -38 -10z"/>
<path d="M1445 3038 c-231 -82 -268 -465 -58 -598 63 -40 155 -43 217 -6 55
32 101 91 124 161 l20 58 103 59 c132 76 137 83 78 114 -22 11 -167 44 -196
44 -2 0 -14 22 -27 49 -53 103 -163 153 -261 119z m83 -138 c27 -25 36 -60 29
-107 -8 -48 -33 -73 -73 -73 -50 0 -74 31 -74 97 0 44 5 59 25 78 29 30 64 32
93 5z m289 -65 c75 -17 123 -34 123 -44 0 -5 -153 -96 -182 -109 -5 -2 -8 18
-8 45 0 26 -4 65 -9 86 -5 20 -5 37 -1 37 5 0 39 -7 77 -15z"/>
</g>
</svg>
